name Run_40002_GRF.mot
datacolumns 19
datarows 20
range 0.862 0.881
endheader
time	     ground_force_vx	     ground_force_vy	     ground_force_vz	     ground_force_px	     ground_force_py	     ground_force_pz	   l_ground_force_vx	   l_ground_force_vy	   l_ground_force_vz	   l_ground_force_px	   l_ground_force_py	   l_ground_force_pz	     ground_torque_x	     ground_torque_y	     ground_torque_z	   l_ground_torque_x	   l_ground_torque_y	   l_ground_torque_z	
0.862	          0.00000000	          0.00000000	          0.00000000	          0.00000000	          0.00000000	          0.00000000	          0.00000000	          0.00000000	          0.00000000	          0.00000000	          0.00000000	          0.00000000	          0.00000000	          0.00000000	          0.00000000	          0.00000000	          0.00000000	          0.00000000	
0.863	         -2.42936000	         10.37330800	         -2.23329300	          1.05893800	          0.00000000	         -0.25331300	          0.00000000	          0.00000000	          0.00000000	          0.00000000	          0.00000000	          0.00000000	          0.00000000	         -0.32876200	          0.00000000	          0.00000000	          0.00000000	          0.00000000	
0.864	         -2.90016800	         11.83517800	         -2.68069700	          1.06241900	          0.00000000	         -0.25937600	          0.00000000	          0.00000000	          0.00000000	          0.00000000	          0.00000000	          0.00000000	          0.00000000	         -0.08675400	          0.00000000	          0.00000000	          0.00000000	          0.00000000	
0.865	         -3.42175300	         13.54164100	         -3.16318800	          1.06565400	          0.00000000	         -0.26474400	          0.00000000	          0.00000000	          0.00000000	          0.00000000	          0.00000000	          0.00000000	         -0.00000000	          0.16707700	         -0.00000000	          0.00000000	          0.00000000	          0.00000000	
0.866	         -3.99679400	         15.52841400	         -3.68265200	          1.06873800	          0.00000000	         -0.26948600	          0.00000000	          0.00000000	          0.00000000	          0.00000000	          0.00000000	          0.00000000	         -0.00000000	          0.43233000	         -0.00000000	          0.00000000	          0.00000000	          0.00000000	
0.867	         -4.62794600	         17.83504900	         -4.24096400	          1.07174200	          0.00000000	         -0.27367200	          0.00000000	          0.00000000	          0.00000000	          0.00000000	          0.00000000	          0.00000000	         -0.00000000	          0.70855100	         -0.00000000	          0.00000000	          0.00000000	          0.00000000	
0.868	         -5.31779300	         20.50511900	         -4.83995800	          1.07471300	          0.00000000	         -0.27736600	          0.00000000	          0.00000000	          0.00000000	          0.00000000	          0.00000000	          0.00000000	         -0.00000000	          0.99522700	         -0.00000000	          0.00000000	          0.00000000	          0.00000000	
0.869	         -6.06879100	         23.58637000	         -5.48137900	          1.07767600	          0.00000000	         -0.28062900	          0.00000000	          0.00000000	          0.00000000	          0.00000000	          0.00000000	          0.00000000	         -0.00000000	          1.29179300	         -0.00000000	          0.00000000	          0.00000000	          0.00000000	
0.87	         -6.88319700	         27.13081900	         -6.16684600	          1.08063900	          0.00000000	         -0.28351300	          0.00000000	          0.00000000	          0.00000000	          0.00000000	          0.00000000	          0.00000000	         -0.00000000	          1.59762900	         -0.00000000	          0.00000000	          0.00000000	          0.00000000	
0.871	         -7.76297600	         31.19479800	         -6.89780000	          1.08359900	          0.00000000	         -0.28606700	          0.00000000	          0.00000000	          0.00000000	          0.00000000	          0.00000000	          0.00000000	         -0.00000000	          1.91206000	         -0.00000000	          0.00000000	          0.00000000	          0.00000000	
0.872	         -8.70970500	         35.83892400	         -7.67544900	          1.08654300	          0.00000000	         -0.28833200	          0.00000000	          0.00000000	          0.00000000	          0.00000000	          0.00000000	          0.00000000	         -0.00000000	          2.23436300	         -0.00000000	          0.00000000	          0.00000000	          0.00000000	
0.873	         -9.72446000	         41.12800600	         -8.50071400	          1.08945200	          0.00000000	         -0.29034200	          0.00000000	          0.00000000	          0.00000000	          0.00000000	          0.00000000	          0.00000000	         -0.00000000	          2.56376100	         -0.00000000	          0.00000000	          0.00000000	          0.00000000	
0.874	        -10.80769200	         47.13081400	         -9.37416700	          1.09230600	          0.00000000	         -0.29213000	          0.00000000	          0.00000000	          0.00000000	          0.00000000	          0.00000000	          0.00000000	         -0.00000000	          2.89943100	         -0.00000000	          0.00000000	          0.00000000	          0.00000000	
0.875	        -11.95912500	         53.91979600	        -10.29596900	          1.09508600	          0.00000000	         -0.29372200	          0.00000000	          0.00000000	          0.00000000	          0.00000000	          0.00000000	          0.00000000	         -0.00000000	          3.24050400	         -0.00000000	          0.00000000	          0.00000000	          0.00000000	
0.876	        -13.17764200	         61.57063700	        -11.26580700	          1.09777100	          0.00000000	         -0.29514300	          0.00000000	          0.00000000	          0.00000000	          0.00000000	          0.00000000	          0.00000000	         -0.00000000	          3.58606600	         -0.00000000	          0.00000000	          0.00000000	          0.00000000	
0.877	        -14.46121400	         70.16170500	        -12.28282900	          1.10034500	          0.00000000	         -0.29641300	          0.00000000	          0.00000000	          0.00000000	          0.00000000	          0.00000000	          0.00000000	         -0.00000000	          3.93516300	         -0.00000000	          0.00000000	          0.00000000	          0.00000000	
0.878	        -15.80684500	         79.77339200	        -13.34558300	          1.10279200	          0.00000000	         -0.29755100	          0.00000000	          0.00000000	          0.00000000	          0.00000000	          0.00000000	          0.00000000	         -0.00000000	          4.28680400	         -0.00000000	          0.00000000	          0.00000000	          0.00000000	
0.879	        -17.21057700	         90.48725100	        -14.45195000	          1.10510100	          0.00000000	         -0.29857400	          0.00000000	          0.00000000	          0.00000000	          0.00000000	          0.00000000	          0.00000000	         -0.00000000	          4.63996400	         -0.00000000	          0.00000000	          0.00000000	          0.00000000	
0.88	        -18.66754900	        102.38507100	        -15.59909200	          1.10726100	          0.00000000	         -0.29949600	          0.00000000	          0.00000000	          0.00000000	          0.00000000	          0.00000000	          0.00000000	         -0.00000000	          4.99358700	         -0.00000000	          0.00000000	          0.00000000	          0.00000000	
0.881	        -20.17210600	        115.54776800	        -16.78339200	          1.10926500	          0.00000000	         -0.30033000	          0.00000000	          0.00000000	          0.00000000	          0.00000000	          0.00000000	          0.00000000	         -0.00000000	          5.34659000	         -0.00000000	          0.00000000	          0.00000000	          0.00000000	
